<?xml version="1.0" encoding="utf-8"?>
<!-- Generator: Adobe Illustrator 25.4.1, SVG Export Plug-In . SVG Version: 6.00 Build 0)  -->
<svg version="1.1" id="레이어_1" xmlns="http://www.w3.org/2000/svg" xmlns:xlink="http://www.w3.org/1999/xlink" x="0px"
	 y="0px" viewBox="0 0 128 128" style="enable-background:new 0 0 128 128;" xml:space="preserve">
<style type="text/css">
	.st0{fill:#D8B656;}
	.st1{fill:#D9C166;}
	.st2{fill:#CAA45A;}
	.st3{fill:#D6B963;}
	.st4{fill:#D6AA50;}
	.st5{fill:#D7B051;}
	.st6{fill:#CFA956;}
	.st7{fill:#CCA655;}
	.st8{fill:#C59A56;}
	.st9{fill:#D9BD65;}
	.st10{fill:url(#SVGID_1_);}
	.st11{fill:url(#SVGID_00000074412960715836079310000004073204565836649642_);}
	.st12{fill:url(#SVGID_00000118366452160707071940000006650989574308241570_);}
	.st13{fill:url(#SVGID_00000100381863168259028320000000120334288585281461_);}
	.st14{fill:url(#SVGID_00000119836958410066709150000016952761127718630793_);}
</style>
<g>
	<polygon class="st0" points="63.67,47.67 72.52,32.34 54.81,32.34 	"/>
	<polygon class="st1" points="81.38,47.67 90.23,32.34 72.52,32.34 	"/>
	<polygon class="st2" points="45.95,47.67 54.81,32.34 37.1,32.34 	"/>
	<polygon class="st3" points="37.1,32.34 45.95,47.67 28.24,47.67 	"/>
	<polygon class="st4" points="54.81,32.34 63.67,47.67 45.95,47.67 	"/>
	<polygon class="st5" points="72.52,32.34 81.38,47.67 63.67,47.67 	"/>
	<polygon class="st6" points="90.23,32.34 99.09,47.67 81.38,47.67 	"/>
	<polygon class="st7" points="63.67,95.66 72.52,47.67 54.81,47.67 	"/>
	<polygon class="st8" points="63.67,95.66 99.09,47.67 72.52,47.67 	"/>
	<polygon class="st9" points="63.67,95.66 28.24,47.67 54.81,47.67 	"/>
</g>
<g>
	<linearGradient id="SVGID_1_" gradientUnits="userSpaceOnUse" x1="16.4485" y1="45.2509" x2="111.311" y2="45.2509">
		<stop  offset="0" style="stop-color:#D6B963"/>
		<stop  offset="0.5" style="stop-color:#AF854D"/>
		<stop  offset="1" style="stop-color:#D6B963"/>
	</linearGradient>
	<path class="st10" d="M107.62,79.98c6.23-12.83,6.64-27.83,1.01-40.94c-4.7-10.95-13.58-20.02-24.43-24.95
		c-11.38-5.17-24.59-5.87-36.41-1.71c-11.33,3.99-20.99,12.15-26.74,22.7C14.5,47.1,13.3,61.74,17.9,74.66
		c0.65,1.81,1.4,3.59,2.25,5.32c0.94,1.93,3.81,0.24,2.87-1.68c-5.73-11.8-6.12-25.95-0.84-37.98
		c4.51-10.28,12.72-18.62,22.92-23.29c10.51-4.82,22.79-5.3,33.69-1.53c10.54,3.64,19.5,11.27,24.89,21.02
		c6.17,11.16,7.28,24.67,3.15,36.73c-0.59,1.73-1.3,3.42-2.1,5.07C103.81,80.22,106.68,81.91,107.62,79.98L107.62,79.98z"/>
</g>
<g>
	<g>
		<g>
			<g>
				<g>
					
						<linearGradient id="SVGID_00000118357932480904438520000011620438553701504918_" gradientUnits="userSpaceOnUse" x1="66.2767" y1="109.2424" x2="113.4278" y2="109.2424">
						<stop  offset="0" style="stop-color:#D6B963"/>
						<stop  offset="0.5" style="stop-color:#AF854D"/>
						<stop  offset="1" style="stop-color:#D6B963"/>
					</linearGradient>
					<path style="fill:url(#SVGID_00000118357932480904438520000011620438553701504918_);" d="M71.3,114.91
						c-0.9-0.43-1.47-0.84-2.09-1.7c-0.42-0.58-0.65-1.22-0.68-1.93c-0.05-1.19,0.88-1.93,1.7-2.66c0.23-0.2,0.46-0.41,0.7-0.6
						c0.44-0.35-0.29,0.19,0.15-0.11c0.21-0.14,0.42-0.27,0.64-0.39c0.42-0.24-0.12,0,0.24-0.11c0.2-0.05,0.83-0.16,0.3-0.11
						c0.2-0.02,0.41-0.01,0.61-0.02c0.49-0.04-0.25-0.12,0.23,0.03c0.2,0.06,0.41,0.11,0.61,0.18c0.08,0.03,0.16,0.06,0.24,0.09
						c-0.49-0.19,0.07,0.04,0.17,0.1c2.09,1.16,3.38,2.43,5.37,4.01c2.69,2.13,5.5,4,8.68,5.33c3.96,1.66,8.26,2.36,12.55,2.26
						c3.57-0.08,7.4-0.68,10.33-2.86c4.33-3.23,5.05-9.23,1.78-13.5c-1.7-2.22-4.26-3.64-7.08-3.73c-3.6-0.1-6.81,2.04-9.17,4.56
						c-1.65,1.76,1,4.42,2.65,2.65c1.06-1.13,2.19-2.11,3.59-2.81c0.94-0.47,1.88-0.66,2.93-0.66c0.11,0,0.22,0.01,0.33,0.02
						c0.53,0.02-0.37-0.08,0.15,0.01c0.24,0.04,0.47,0.09,0.7,0.16c0.23,0.06,0.45,0.14,0.67,0.22c-0.38-0.15,0.41,0.21,0.53,0.28
						c0.2,0.12,0.39,0.24,0.58,0.38c-0.1-0.07,0.07,0.04,0.28,0.24c0.19,0.18,0.37,0.35,0.55,0.54c0.09,0.09,0.17,0.19,0.25,0.29
						c0.31,0.36-0.07-0.13,0.13,0.17c0.26,0.39,0.5,0.78,0.7,1.2c0.23,0.47,0-0.08,0.17,0.41c0.09,0.27,0.17,0.54,0.24,0.82
						c0.05,0.23,0.1,0.45,0.13,0.68c-0.07-0.48,0.01,0.3,0.01,0.43c0.01,0.26-0.01,0.52-0.02,0.77c0,0.1-0.02,0.21-0.03,0.31
						c0.06-0.45-0.01,0.02-0.03,0.12c-0.07,0.25-0.13,0.51-0.21,0.76c-0.15,0.48,0.06-0.01-0.18,0.44
						c-0.11,0.22-0.23,0.44-0.36,0.65c-0.07,0.12-0.15,0.24-0.23,0.35c-0.32,0.44,0.23-0.26-0.13,0.16
						c-0.86,0.98-1.66,1.53-2.96,2.08c-3.37,1.42-7.8,1.37-11.45,0.8c-3.49-0.54-6.77-1.78-9.78-3.63
						c-2.42-1.49-4.31-3.13-6.52-4.89c-1.78-1.42-3.69-2.91-6.04-3.15c-1.19-0.12-2.36,0.16-3.42,0.72
						c-1.79,0.95-3.73,2.71-4.57,4.55c-1.62,3.54,0.87,7.77,4.15,9.32C71.57,119.17,73.48,115.94,71.3,114.91L71.3,114.91z"/>
				</g>
			</g>
			<g>
				<g>
					
						<linearGradient id="SVGID_00000181084577155182304740000012373632237093697920_" gradientUnits="userSpaceOnUse" x1="66.4397" y1="100.6756" x2="100.2901" y2="100.6756">
						<stop  offset="0" style="stop-color:#D6B963"/>
						<stop  offset="0.5" style="stop-color:#AF854D"/>
						<stop  offset="1" style="stop-color:#D6B963"/>
					</linearGradient>
					<path style="fill:url(#SVGID_00000181084577155182304740000012373632237093697920_);" d="M68.69,105.75
						c0-0.08,0-0.16,0.01-0.24c0-0.09,0.02-0.18,0.02-0.27c0.01-0.32-0.13,0.52,0,0.01c0.08-0.3,0.15-0.61,0.23-0.91
						c0.13-0.49-0.04,0.02,0.06-0.16c0.1-0.19,0.2-0.38,0.31-0.56c0.26-0.44-0.14,0.09,0.16-0.22c0.15-0.16,0.3-0.31,0.46-0.45
						c-0.3,0.25,0.12-0.08,0.25-0.15c0.45-0.27,0.26-0.17,0.57-0.26c1.2-0.35,2.56-0.24,3.97,0.1c2.2,0.54,4.2,1.64,6.41,2.15
						c2.07,0.48,4.18,0.58,6.28,0.3c3.44-0.46,6.68-1.93,9.45-3.98c1.61-1.19,3.2-2.53,4.45-4.11c0.63-0.8,0.77-1.87,0-2.65
						c-0.64-0.66-2.03-0.79-2.65,0c-2.92,3.71-7.63,6.77-12.42,7.12c-2.14,0.16-4.21-0.18-6.22-0.93c-2.18-0.81-4.23-1.64-6.56-1.9
						c-2.77-0.3-5.59,0.51-7.23,2.87c-0.83,1.19-1.32,2.79-1.3,4.25C64.97,108.16,68.72,108.17,68.69,105.75L68.69,105.75z"/>
				</g>
			</g>
		</g>
	</g>
	<g>
		<g>
			<g>
				<g>
					
						<linearGradient id="SVGID_00000140726065709920538810000011126753450443260603_" gradientUnits="userSpaceOnUse" x1="13.9025" y1="109.2515" x2="61.0536" y2="109.2515">
						<stop  offset="0" style="stop-color:#D6B963"/>
						<stop  offset="0.5" style="stop-color:#AF854D"/>
						<stop  offset="1" style="stop-color:#D6B963"/>
					</linearGradient>
					<path style="fill:url(#SVGID_00000140726065709920538810000011126753450443260603_);" d="M57.93,118.15
						c2.79-1.31,4.88-4.39,4.6-7.51c-0.23-2.52-2.17-4.35-4.11-5.77c-0.96-0.71-2.04-1.18-3.23-1.3c-2.04-0.22-3.93,0.76-5.54,1.92
						c-2.16,1.56-4.11,3.36-6.18,4.83c-5.98,4.25-13.78,6.45-21.08,4.76c-1.46-0.34-2.7-0.79-3.92-1.66
						c-0.75-0.53-1.36-1.23-1.86-2.22c-0.24-0.46-0.03,0.04-0.18-0.44c-0.07-0.23-0.13-0.45-0.19-0.68
						c-0.03-0.13-0.05-0.26-0.07-0.38c0.07,0.39,0.01,0.13,0.01,0.04c-0.03-0.31-0.04-0.62-0.03-0.93c0.02-0.71-0.03-0.34,0.13-1.03
						c0.06-0.25,0.13-0.5,0.21-0.74c0.04-0.12,0.08-0.24,0.13-0.36c0.01-0.04-0.09,0.16,0.09-0.19c0.12-0.23,0.23-0.46,0.37-0.68
						c0.07-0.12,0.57-0.83,0.32-0.51c0.35-0.45,0.75-0.85,1.18-1.21c0.27-0.22,0.04-0.03-0.01,0.01c0.15-0.11,0.3-0.21,0.45-0.3
						c0.24-0.15,0.49-0.28,0.75-0.41c0.32-0.15,0.05-0.02-0.02,0c0.17-0.07,0.34-0.13,0.52-0.18c0.28-0.08,0.56-0.15,0.85-0.2
						c0.51-0.09-0.26,0.02,0.06,0c0.19-0.01,0.38-0.03,0.58-0.03c0.28,0,0.57,0.01,0.85,0.05c-0.37-0.04,0.02,0.01,0.11,0.03
						c0.21,0.04,0.41,0.09,0.62,0.15c0.31,0.08,0.61,0.18,0.9,0.3c1.23,0.51,2.78,1.78,3.88,2.95c1.65,1.76,4.3-0.89,2.65-2.65
						c-2.22-2.37-5.03-4.26-8.33-4.54c-2.52-0.21-5.01,0.78-6.85,2.48c-3.73,3.47-4.23,9.42-0.88,13.3
						c2.13,2.46,5.45,3.59,8.58,4.02c4.39,0.6,9.04,0.26,13.28-1.05c3.38-1.04,6.51-2.72,9.35-4.81c1.19-0.88,2.34-1.8,3.49-2.74
						c0.48-0.39,0.96-0.78,1.44-1.17c0.4-0.32,0.04-0.04,0.44-0.33c0.24-0.17,0.48-0.35,0.72-0.51c0.47-0.32,0.95-0.6,1.45-0.85
						c0.3-0.15-0.03,0.01-0.08,0.03c0.14-0.06,0.28-0.11,0.43-0.15c0.22-0.06,0.44-0.12,0.67-0.16c-0.58,0.11,0.19,0.03,0.35,0.02
						c0.08,0,0.17,0.01,0.24,0.02c-0.57-0.05-0.01,0.01,0.12,0.06c0.08,0.03,0.17,0.05,0.25,0.08c0.39,0.12-0.29-0.15,0.06,0.02
						c0.27,0.14,0.52,0.29,0.77,0.46c0.43,0.29-0.17-0.14,0.08,0.06c0.37,0.3,0.73,0.62,1.08,0.94c0.41,0.38,0.87,0.78,1.15,1.28
						c0.44,0.79,0.24,1.81-0.18,2.58c-0.58,1.07-1.37,1.67-2.36,2.13C53.85,115.94,55.75,119.18,57.93,118.15L57.93,118.15z"/>
				</g>
			</g>
			<g>
				<g>
					
						<linearGradient id="SVGID_00000079458938070520734460000007707918686400371120_" gradientUnits="userSpaceOnUse" x1="27.0402" y1="100.6758" x2="60.8905" y2="100.6758">
						<stop  offset="0" style="stop-color:#D6B963"/>
						<stop  offset="0.5" style="stop-color:#AF854D"/>
						<stop  offset="1" style="stop-color:#D6B963"/>
					</linearGradient>
					<path style="fill:url(#SVGID_00000079458938070520734460000007707918686400371120_);" d="M62.39,105.75
						c0.06-4.12-3.24-7.13-7.27-7.19c-4.41-0.06-8.09,2.8-12.45,2.93c-3.55,0.11-6.87-1.21-9.74-3.21
						c-1.53-1.06-3.08-2.42-4.27-3.94c-0.63-0.8-1.99-0.65-2.65,0c-0.79,0.78-0.62,1.86,0,2.65c2.99,3.8,7.74,6.85,12.45,7.85
						c1.94,0.41,3.9,0.52,5.87,0.27c2.41-0.31,4.48-1.28,6.76-2.03c1.43-0.47,3.37-0.91,4.63-0.74c0.26,0.04,0.51,0.11,0.76,0.17
						c0.46,0.11,0.13-0.01,0.51,0.2c0.64,0.36,0.34,0.15,0.81,0.63c0.02,0.02,0.3,0.37,0.12,0.13c-0.17-0.22,0.09,0.15,0.12,0.2
						c0.1,0.19,0.21,0.37,0.3,0.56c-0.12-0.25,0-0.03,0.08,0.27c0.05,0.17,0.09,0.34,0.13,0.51c0.04,0.15,0.05,0.3,0.08,0.45
						c-0.13-0.65-0.03-0.25-0.02-0.07c0.01,0.12,0.02,0.23,0.01,0.35C58.61,108.16,62.36,108.17,62.39,105.75L62.39,105.75z"/>
				</g>
			</g>
		</g>
	</g>
</g>
</svg>
