<svg xmlns="http://www.w3.org/2000/svg" xmlns:xlink="http://www.w3.org/1999/xlink" viewBox="0 0 189.52 122.17"><defs><style>.cls-1,.cls-2,.cls-3,.cls-4,.cls-5,.cls-6,.cls-7{fill:none;stroke-miterlimit:10;}.cls-1{stroke:url(#무제_그라디언트_90);}.cls-2{stroke:url(#무제_그라디언트_90-2);}.cls-3{stroke:url(#무제_그라디언트_90-3);}.cls-4{stroke:url(#무제_그라디언트_90-4);}.cls-5{stroke:url(#무제_그라디언트_90-5);}.cls-6{stroke:url(#무제_그라디언트_90-6);}.cls-7{stroke:url(#무제_그라디언트_90-7);}.cls-8{fill:#dfbb55;}.cls-9{fill:#e0c665;}.cls-10{fill:#cfa75a;}.cls-11{fill:#dcbd64;}.cls-12{fill:#dcae50;}.cls-13{fill:#deb44f;}.cls-14{fill:#d5ad54;}.cls-15{fill:#d2aa53;}.cls-16{fill:#ca9e56;}.cls-17{fill:#e0c264;}</style><linearGradient id="무제_그라디언트_90" x1="41.19" y1="38.56" x2="148.3" y2="38.56" gradientUnits="userSpaceOnUse"><stop offset="0" stop-color="#dcbd64"/><stop offset="0.5" stop-color="#b3874e"/><stop offset="1" stop-color="#dcbd64"/></linearGradient><linearGradient id="무제_그라디언트_90-2" x1="96.24" y1="105.42" x2="189.52" y2="105.42" xlink:href="#무제_그라디언트_90"/><linearGradient id="무제_그라디언트_90-3" x1="96.57" y1="88.29" x2="163.44" y2="88.29" xlink:href="#무제_그라디언트_90"/><linearGradient id="무제_그라디언트_90-4" x1="102.58" y1="110.21" x2="112.39" y2="110.21" xlink:href="#무제_그라디언트_90"/><linearGradient id="무제_그라디언트_90-5" x1="0" y1="105.42" x2="93.28" y2="105.42" xlink:href="#무제_그라디언트_90"/><linearGradient id="무제_그라디언트_90-6" x1="26.07" y1="88.29" x2="92.95" y2="88.29" xlink:href="#무제_그라디언트_90"/><linearGradient id="무제_그라디언트_90-7" x1="77.13" y1="110.21" x2="86.94" y2="110.21" xlink:href="#무제_그라디언트_90"/></defs><title>자산 1</title><g id="레이어_2" data-name="레이어 2"><g id="레이어_1-2" data-name="레이어 1"><path class="cls-1" d="M142.39,76.9a53.06,53.06,0,1,0-95.29,0"/><path class="cls-2" d="M104.1,119.92s-8.57-4-7.21-12.39c.36-2.25,2.56-4.53,5.71-7.16,14.72-12.27,21.83,23.21,63.78,21.22s17.33-51.29-7.49-24.44"/><path class="cls-3" d="M97.07,98.47s-.34-17.61,23.85-7.35,42.13-12.71,42.13-12.71"/><path class="cls-4" d="M112.28,103.21a7.28,7.28,0,1,0-3.13,14.21"/><path class="cls-5" d="M85.42,119.92s8.57-4,7.21-12.39c-.36-2.25-2.56-4.53-5.71-7.16C72.2,88.1,65.09,123.58,23.14,121.59S5.81,70.3,30.63,97.15"/><path class="cls-6" d="M92.45,98.47s.34-17.61-23.85-7.35S26.47,78.41,26.47,78.41"/><path class="cls-7" d="M77.24,103.21a7.28,7.28,0,1,1,3.13,14.21"/><polygon class="cls-8" points="94.75 40.29 102.57 26.75 86.93 26.75 94.75 40.29"/><polygon class="cls-9" points="110.39 40.29 118.21 26.75 102.57 26.75 110.39 40.29"/><polygon class="cls-10" points="79.11 40.29 86.93 26.75 71.29 26.75 79.11 40.29"/><polygon class="cls-11" points="71.29 26.75 79.11 40.29 63.47 40.29 71.29 26.75"/><polygon class="cls-12" points="86.93 26.75 94.75 40.29 79.11 40.29 86.93 26.75"/><polygon class="cls-13" points="102.57 26.75 110.39 40.29 94.75 40.29 102.57 26.75"/><polygon class="cls-14" points="118.21 26.75 126.03 40.29 110.39 40.29 118.21 26.75"/><polygon class="cls-15" points="94.75 82.67 102.57 40.29 86.93 40.29 94.75 82.67"/><polygon class="cls-16" points="94.75 82.67 126.03 40.29 102.57 40.29 94.75 82.67"/><polygon class="cls-17" points="94.75 82.67 63.47 40.29 86.93 40.29 94.75 82.67"/></g></g></svg>