<svg xmlns="http://www.w3.org/2000/svg" xmlns:xlink="http://www.w3.org/1999/xlink" viewBox="0 0 285.52 11.8"><defs><style>.cls-1{fill:url(#무제_그라디언트_76);}.cls-2{fill:url(#무제_그라디언트_76-2);}.cls-3{stroke:#dcbd64;stroke-miterlimit:10;fill:url(#무제_그라디언트_76-3);}</style><linearGradient id="무제_그라디언트_76" x1="273.72" y1="5.9" x2="285.52" y2="5.9" gradientUnits="userSpaceOnUse"><stop offset="0" stop-color="#b3874e"/><stop offset="0.32" stop-color="#dcbd64"/><stop offset="0.65" stop-color="#b3874e"/><stop offset="1" stop-color="#dcbd64"/></linearGradient><linearGradient id="무제_그라디언트_76-2" x1="0" y1="5.9" x2="11.8" y2="5.9" xlink:href="#무제_그라디언트_76"/><linearGradient id="무제_그라디언트_76-3" x1="21.31" y1="5.9" x2="264.21" y2="5.9" xlink:href="#무제_그라디언트_76"/></defs><title>자산 4</title><g id="레이어_2" data-name="레이어 2"><g id="레이어_1-2" data-name="레이어 1"><path class="cls-1" d="M285.52,11.6c-5.6-4.7-6.17-4.69-11.6.2,4.7-5.59,4.69-6.17-.2-11.59,5.59,4.7,6.17,4.69,11.59-.21C280.61,5.6,280.62,6.17,285.52,11.6Z"/><path class="cls-2" d="M11.8,11.6C6.21,6.9,5.63,6.91.21,11.8,4.91,6.21,4.9,5.63,0,.21,5.6,4.91,6.17,4.9,11.6,0,6.9,5.6,6.91,6.17,11.8,11.6Z"/><line class="cls-3" x1="21.31" y1="5.9" x2="264.21" y2="5.9"/></g></g></svg>