<svg xmlns="http://www.w3.org/2000/svg" xmlns:xlink="http://www.w3.org/1999/xlink" viewBox="0 0 281.8 16.84"><defs><style>.cls-1{fill:url(#무제_그라디언트_76);}.cls-2{fill:url(#무제_그라디언트_76-2);}.cls-3{fill:url(#무제_그라디언트_76-3);}</style><linearGradient id="무제_그라디언트_76" x1="269.99" y1="10.93" x2="281.8" y2="10.93" gradientUnits="userSpaceOnUse"><stop offset="0" stop-color="#b3874e"/><stop offset="0.32" stop-color="#dcbd64"/><stop offset="0.65" stop-color="#b3874e"/><stop offset="1" stop-color="#dcbd64"/></linearGradient><linearGradient id="무제_그라디언트_76-2" x1="0" y1="10.93" x2="11.8" y2="10.93" xlink:href="#무제_그라디언트_76"/><linearGradient id="무제_그라디언트_76-3" x1="19.34" y1="5.47" x2="262.45" y2="5.47" xlink:href="#무제_그라디언트_76"/></defs><title>자산 3</title><g id="레이어_2" data-name="레이어 2"><g id="레이어_1-2" data-name="레이어 1"><path class="cls-1" d="M281.8,16.63c-5.6-4.7-6.18-4.69-11.6.21,4.7-5.6,4.69-6.18-.21-11.6,5.6,4.7,6.18,4.69,11.6-.21C276.89,10.63,276.9,11.2,281.8,16.63Z"/><path class="cls-2" d="M11.8,16.63c-5.59-4.7-6.17-4.69-11.59.21,4.7-5.6,4.69-6.18-.21-11.6C5.6,9.94,6.17,9.93,11.6,5,6.9,10.63,6.91,11.2,11.8,16.63Z"/><path class="cls-3" d="M262.24,10.93a774.63,774.63,0,0,0-242.68,0l-.22-1.35a776.16,776.16,0,0,1,243.11,0Z"/></g></g></svg>